{"asset":{"version":"2.0","generator":"babylon.js glTF exporter for 3dsmax 2026 v20251111.2"},"extensionsUsed":["KHR_texture_transform","KHR_materials_ior","KHR_materials_transmission","KHR_materials_volume"],"extensionsRequired":["KHR_texture_transform"],"scene":0,"scenes":[{"nodes":[0,1,2,3,4,5,6,7]}],"nodes":[{"mesh":0,"translation":[24.627432,0.0,27.420399],"name":"Generic Models 3 Generic Models 1 [8445792]001"},{"mesh":1,"translation":[24.627432,0.0,27.369596],"name":"Generic Models 7 Generic Models 1 [8445814]001"},{"mesh":2,"translation":[24.627432,0.0,27.394999],"name":"Generic Models 11 Generic Models 11 [8762451]001"},{"mesh":3,"translation":[0.02016621,2.3882964,-1.130914],"name":"Casework 2 Casework 1 [8743341]001"},{"mesh":4,"translation":[-1.4804415,1.645285,0.05890338],"name":"Casework 3 Casework 1 [8744722]001"},{"mesh":5,"translation":[-0.12339712,1.10363,1.2487229],"name":"Casework 4 Casework 1 [8744916]001"},{"mesh":6,"translation":[0.6578017,2.434603,0.029523006],"name":"Casework 5 Casework 1 [8445778]001"},{"mesh":7,"translation":[0.5142407,1.0982366,0.088286094],"name":"Casework 6 Casework 1 [8445804]001"}],"meshes":[{"primitives":[{"attributes":{"POSITION":1,"TANGENT":2,"NORMAL":3,"TEXCOORD_0":4},"indices":0,"material":0},{"attributes":{"POSITION":6,"TANGENT":7,"NORMAL":8,"TEXCOORD_0":9},"indices":5,"material":1}],"name":"Generic Models 3 Generic Models 1 [8445792]001"},{"primitives":[{"attributes":{"POSITION":11,"TANGENT":12,"NORMAL":13,"TEXCOORD_0":14},"indices":10,"material":0},{"attributes":{"POSITION":16,"TANGENT":17,"NORMAL":18,"TEXCOORD_0":19},"indices":15,"material":1}],"name":"Generic Models 7 Generic Models 1 [8445814]001"},{"primitives":[{"attributes":{"POSITION":21,"TANGENT":22,"NORMAL":23,"TEXCOORD_0":24},"indices":20,"material":0},{"attributes":{"POSITION":26,"TANGENT":27,"NORMAL":28,"TEXCOORD_0":29},"indices":25,"material":1}],"name":"Generic Models 11 Generic Models 11 [8762451]001"},{"primitives":[{"attributes":{"POSITION":31,"TANGENT":32,"NORMAL":33,"TEXCOORD_0":34},"indices":30,"material":2}],"name":"Casework 2 Casework 1 [8743341]001"},{"primitives":[{"attributes":{"POSITION":36,"TANGENT":37,"NORMAL":38,"TEXCOORD_0":39},"indices":35,"material":2}],"name":"Casework 3 Casework 1 [8744722]001"},{"primitives":[{"attributes":{"POSITION":41,"TANGENT":42,"NORMAL":43,"TEXCOORD_0":44},"indices":40,"material":2}],"name":"Casework 4 Casework 1 [8744916]001"},{"primitives":[{"attributes":{"POSITION":46,"TANGENT":47,"NORMAL":48,"TEXCOORD_0":49},"indices":45,"material":2}],"name":"Casework 5 Casework 1 [8445778]001"},{"primitives":[{"attributes":{"POSITION":51,"TANGENT":52,"NORMAL":53,"TEXCOORD_0":54},"indices":50,"material":2}],"name":"Casework 6 Casework 1 [8445804]001"}],"accessors":[{"bufferView":0,"componentType":5123,"count":105534,"type":"SCALAR","name":"accessorIndices"},{"bufferView":1,"componentType":5126,"count":20256,"max":[-23.025953,3.6989956,-27.3718],"min":[-24.913303,2.3597064,-27.409899],"type":"VEC3","name":"accessorPositions"},{"bufferView":2,"componentType":5126,"count":20256,"type":"VEC4","name":"accessorTangents"},{"bufferView":1,"byteOffset":243072,"componentType":5126,"count":20256,"type":"VEC3","name":"accessorNormals"},{"bufferView":3,"componentType":5126,"count":20256,"type":"VEC2","name":"accessorUVs"},{"bufferView":0,"byteOffset":211068,"componentType":5123,"count":492,"type":"SCALAR","name":"accessorIndices"},{"bufferView":1,"byteOffset":486144,"componentType":5126,"count":168,"max":[-23.025953,3.6989956,-27.3718],"min":[-24.913303,2.3597064,-27.409899],"type":"VEC3","name":"accessorPositions"},{"bufferView":2,"byteOffset":324096,"componentType":5126,"count":168,"type":"VEC4","name":"accessorTangents"},{"bufferView":1,"byteOffset":488160,"componentType":5126,"count":168,"type":"VEC3","name":"accessorNormals"},{"bufferView":3,"byteOffset":162048,"componentType":5126,"count":168,"type":"VEC2","name":"accessorUVs"},{"bufferView":0,"byteOffset":212052,"componentType":5123,"count":90204,"type":"SCALAR","name":"accessorIndices"},{"bufferView":1,"byteOffset":490176,"componentType":5126,"count":17493,"max":[-23.313078,2.2008483,-27.262262],"min":[-24.913303,1.057342,-27.300388],"type":"VEC3","name":"accessorPositions"},{"bufferView":2,"byteOffset":326784,"componentType":5126,"count":17493,"type":"VEC4","name":"accessorTangents"},{"bufferView":1,"byteOffset":700092,"componentType":5126,"count":17493,"type":"VEC3","name":"accessorNormals"},{"bufferView":3,"byteOffset":163392,"componentType":5126,"count":17493,"type":"VEC2","name":"accessorUVs"},{"bufferView":0,"byteOffset":392460,"componentType":5123,"count":492,"type":"SCALAR","name":"accessorIndices"},{"bufferView":1,"byteOffset":910008,"componentType":5126,"count":168,"max":[-23.313078,2.2008483,-27.262262],"min":[-24.913303,1.057342,-27.300362],"type":"VEC3","name":"accessorPositions"},{"bufferView":2,"byteOffset":606672,"componentType":5126,"count":168,"type":"VEC4","name":"accessorTangents"},{"bufferView":1,"byteOffset":912024,"componentType":5126,"count":168,"type":"VEC3","name":"accessorNormals"},{"bufferView":3,"byteOffset":303336,"componentType":5126,"count":168,"type":"VEC2","name":"accessorUVs"},{"bufferView":0,"byteOffset":393444,"componentType":5123,"count":216663,"type":"SCALAR","name":"accessorIndices"},{"bufferView":1,"byteOffset":914040,"componentType":5126,"count":43408,"max":[-23.025953,3.6989956,-26.127224],"min":[-26.126896,1.059403,-28.544962],"type":"VEC3","name":"accessorPositions"},{"bufferView":2,"byteOffset":609360,"componentType":5126,"count":43408,"type":"VEC4","name":"accessorTangents"},{"bufferView":1,"byteOffset":1434936,"componentType":5126,"count":43408,"type":"VEC3","name":"accessorNormals"},{"bufferView":3,"byteOffset":304680,"componentType":5126,"count":43408,"type":"VEC2","name":"accessorUVs"},{"bufferView":0,"byteOffset":826772,"componentType":5123,"count":492,"type":"SCALAR","name":"accessorIndices"},{"bufferView":1,"byteOffset":1955832,"componentType":5126,"count":168,"max":[-23.025953,3.6989956,-26.127224],"min":[-23.313078,1.059403,-28.544962],"type":"VEC3","name":"accessorPositions"},{"bufferView":2,"byteOffset":1303888,"componentType":5126,"count":168,"type":"VEC4","name":"accessorTangents"},{"bufferView":1,"byteOffset":1957848,"componentType":5126,"count":168,"type":"VEC3","name":"accessorNormals"},{"bufferView":3,"byteOffset":651944,"componentType":5126,"count":168,"type":"VEC2","name":"accessorUVs"},{"bufferView":0,"byteOffset":827756,"componentType":5123,"count":1134,"type":"SCALAR","name":"accessorIndices"},{"bufferView":1,"byteOffset":1959864,"componentType":5126,"count":613,"max":[1.5733621,1.2916126,0.0071623535],"min":[-1.484462,-1.2351322,-0.0071623535],"type":"VEC3","name":"accessorPositions"},{"bufferView":2,"byteOffset":1306576,"componentType":5126,"count":613,"type":"VEC4","name":"accessorTangents"},{"bufferView":1,"byteOffset":1967220,"componentType":5126,"count":613,"type":"VEC3","name":"accessorNormals"},{"bufferView":3,"byteOffset":653288,"componentType":5126,"count":613,"type":"VEC2","name":"accessorUVs"},{"bufferView":0,"byteOffset":830024,"componentType":5123,"count":696,"type":"SCALAR","name":"accessorIndices"},{"bufferView":1,"byteOffset":1974576,"componentType":5126,"count":415,"max":[0.007164679,0.5492749,1.1736764],"min":[-0.0071623535,-0.49287155,-1.1736741],"type":"VEC3","name":"accessorPositions"},{"bufferView":2,"byteOffset":1316384,"componentType":5126,"count":415,"type":"VEC4","name":"accessorTangents"},{"bufferView":1,"byteOffset":1979556,"componentType":5126,"count":415,"type":"VEC3","name":"accessorNormals"},{"bufferView":3,"byteOffset":658192,"componentType":5126,"count":415,"type":"VEC2","name":"accessorUVs"},{"bufferView":0,"byteOffset":831416,"componentType":5123,"count":1194,"type":"SCALAR","name":"accessorIndices"},{"bufferView":1,"byteOffset":1984536,"componentType":5126,"count":625,"max":[1.4298011,1.09093,0.0071623535],"min":[-1.3408989,-1.09093,-0.0071623535],"type":"VEC3","name":"accessorPositions"},{"bufferView":2,"byteOffset":1323024,"componentType":5126,"count":625,"type":"VEC4","name":"accessorTangents"},{"bufferView":1,"byteOffset":1992036,"componentType":5126,"count":625,"type":"VEC3","name":"accessorNormals"},{"bufferView":3,"byteOffset":661512,"componentType":5126,"count":625,"type":"VEC2","name":"accessorUVs"},{"bufferView":0,"byteOffset":833804,"componentType":5123,"count":696,"type":"SCALAR","name":"accessorIndices"},{"bufferView":1,"byteOffset":1999536,"componentType":5126,"count":347,"max":[0.93572664,1.2459797,0.0071623535],"min":[-0.9357243,-1.2586794,-0.0071623535],"type":"VEC3","name":"accessorPositions"},{"bufferView":2,"byteOffset":1333024,"componentType":5126,"count":347,"type":"VEC4","name":"accessorTangents"},{"bufferView":1,"byteOffset":2003700,"componentType":5126,"count":347,"type":"VEC3","name":"accessorNormals"},{"bufferView":3,"byteOffset":666512,"componentType":5126,"count":347,"type":"VEC2","name":"accessorUVs"},{"bufferView":0,"byteOffset":835196,"componentType":5123,"count":786,"type":"SCALAR","name":"accessorIndices"},{"bufferView":1,"byteOffset":2007864,"componentType":5126,"count":394,"max":[0.7921633,1.0841881,0.0071623535],"min":[-0.7921633,-1.0855365,-0.0071623535],"type":"VEC3","name":"accessorPositions"},{"bufferView":2,"byteOffset":1338576,"componentType":5126,"count":394,"type":"VEC4","name":"accessorTangents"},{"bufferView":1,"byteOffset":2012592,"componentType":5126,"count":394,"type":"VEC3","name":"accessorNormals"},{"bufferView":3,"byteOffset":669288,"componentType":5126,"count":394,"type":"VEC2","name":"accessorUVs"}],"bufferViews":[{"buffer":0,"byteLength":836768,"name":"bufferViewScalar"},{"buffer":0,"byteOffset":836768,"byteLength":2017320,"byteStride":12,"name":"bufferViewFloatVec3"},{"buffer":0,"byteOffset":2854088,"byteLength":1344880,"byteStride":16,"name":"bufferViewFloatVec4"},{"buffer":0,"byteOffset":4198968,"byteLength":672440,"byteStride":8,"name":"bufferViewFloatVec2"}],"buffers":[{"uri":"Switchback_Railing_Optik-Boss_Wood-Cap.bin","byteLength":4871408}],"materials":[{"pbrMetallicRoughness":{"baseColorFactor":[0.9999998,0.9999999,0.9999999,1.0],"baseColorTexture":{"index":0,"extensions":{"KHR_texture_transform":{"offset":[0.19519997,0.8048],"rotation":1.5707964,"scale":[0.6096,0.6096],"texCoord":0}}},"roughnessFactor":0.2,"metallicRoughnessTexture":{"index":0,"extensions":{"KHR_texture_transform":{"offset":[0.19519997,0.8048],"rotation":1.5707964,"scale":[0.6096,0.6096],"texCoord":0}}}},"name":"Steel_Linear"},{"pbrMetallicRoughness":{"baseColorFactor":[0.9999998,0.9999999,0.9999999,1.0],"baseColorTexture":{"index":1},"roughnessFactor":0.2,"metallicRoughnessTexture":{"index":1}},"name":"Steel_Radial"},{"pbrMetallicRoughness":{"baseColorFactor":[0.9999998,0.9999999,0.9999999,1.0],"metallicFactor":0.0,"roughnessFactor":0.1},"name":"Glass","extensions":{"KHR_materials_ior":{"ior":1.0},"KHR_materials_transmission":{"transmissionFactor":0.97},"KHR_materials_volume":{"thicknessFactor":0.56,"attenuationDistance":0.5,"attenuationColor":[0.49521634,0.56476736,0.5317566]}}}],"textures":[{"sampler":0,"source":0,"name":"Metal_Brushed_Linear_4k.jpg"},{"sampler":0,"source":1,"name":"Metal_Brushed_Radial_4k.jpg"}],"images":[{"uri":"textures/Metal_Brushed_Linear_4k.jpg"},{"uri":"textures/Metal_Brushed_Radial_4k.jpg"}],"samplers":[{"magFilter":9729,"minFilter":9987}]}